<svg width="288" height="588" viewBox="0 0 288 588" fill="none" xmlns="http://www.w3.org/2000/svg">
<path d="M6.58971 27.2415C3.91613 32.4887 2.58991 38.5284 1.92822 46.6272C1.26726 54.7169 1.26726 64.8983 1.26726 78.4377V78.4578V509.542V509.562C1.26726 523.102 1.26726 533.283 1.92822 541.373C2.58991 549.472 3.91613 555.511 6.58971 560.758C11.2715 569.947 18.7419 577.417 27.9304 582.099C33.1776 584.773 39.2173 586.099 47.316 586.761C55.4053 587.422 65.586 587.422 79.1242 587.422H79.1467H208.506H208.528C222.066 587.422 232.247 587.422 240.336 586.761C248.435 586.099 254.475 584.773 259.722 582.099C268.91 577.417 276.381 569.947 281.063 560.758C283.736 555.511 285.062 549.472 285.724 541.373C286.385 533.283 286.385 523.102 286.385 509.563V509.542V78.4578V78.4372C286.385 64.8981 286.385 54.7169 285.724 46.6272C285.062 38.5284 283.736 32.4887 281.063 27.2415C276.381 18.0531 268.91 10.5826 259.722 5.90087C254.475 3.22729 248.435 1.90107 240.336 1.23938C232.247 0.578417 222.065 0.578417 208.526 0.578417H208.506H79.1467H79.1265C65.5871 0.578417 55.4058 0.578417 47.316 1.23938C39.2173 1.90107 33.1776 3.22729 27.9304 5.90087C18.7419 10.5826 11.2715 18.0531 6.58971 27.2415ZM6.61379 75.7558C6.61379 63.4535 6.61412 54.2522 7.21059 46.9516C7.80667 39.656 8.996 34.2957 11.3535 29.6688C15.5227 21.4864 22.1752 14.8338 30.3577 10.6647C34.9845 8.30716 40.3448 7.11783 47.6404 6.52175C54.941 5.92527 64.1424 5.92494 76.4446 5.92494H114.273C114.328 5.92494 114.461 5.97798 114.666 6.24628C114.854 6.49168 115.021 6.80918 115.175 7.10343L115.175 7.10409C115.22 7.18908 115.264 7.27327 115.305 7.34855C115.758 8.17404 116.636 8.73516 117.646 8.73516H169.443C170.453 8.73516 171.332 8.17404 171.785 7.34855C171.826 7.27353 171.87 7.18967 171.914 7.10499L171.915 7.1034C172.069 6.80917 172.236 6.49167 172.424 6.24628C172.629 5.97798 172.762 5.92494 172.817 5.92494H211.208C223.51 5.92494 232.711 5.92527 240.012 6.52175C247.308 7.11783 252.668 8.30716 257.295 10.6647C265.477 14.8338 272.13 21.4864 276.299 29.6688C278.656 34.2957 279.846 39.656 280.442 46.9516C281.038 54.2522 281.039 63.4535 281.039 75.7558V512.244C281.039 524.547 281.038 533.748 280.442 541.048C279.846 548.344 278.656 553.704 276.299 558.331C272.13 566.514 265.477 573.166 257.295 577.335C252.668 579.693 247.308 580.882 240.012 581.478C232.711 582.075 223.51 582.075 211.208 582.075H76.4446C64.1424 582.075 54.941 582.075 47.6404 581.478C40.3448 580.882 34.9845 579.693 30.3577 577.335C22.1752 573.166 15.5227 566.514 11.3535 558.331C8.996 553.704 7.80667 548.344 7.21059 541.048C6.61412 533.748 6.61379 524.547 6.61379 512.244V75.7558Z" stroke="black" stroke-width="0.843165"/>
<path d="M287.652 187.89C287.652 187.268 287.148 186.764 286.526 186.764H285.963V256.566H286.526C287.148 256.566 287.652 256.062 287.652 255.44V187.89Z" fill="black"/>
<path d="M0 114.428C0 113.962 0.378042 113.584 0.84438 113.584H1.68876V136.101H0.84438C0.378041 136.101 0 135.723 0 135.257V114.428Z" fill="black"/>
<path d="M0 156.647C0 156.181 0.378042 155.803 0.84438 155.803H1.68876V200.837H0.844381C0.378043 200.837 0 200.459 0 199.992V156.647Z" fill="black"/>
<path d="M0 212.94C0 212.473 0.378042 212.095 0.84438 212.095H1.68876V257.129H0.844381C0.378043 257.129 0 256.751 0 256.284V212.94Z" fill="black"/>
</svg>
