<svg width="50" height="51" viewBox="0 0 50 51" fill="none" xmlns="http://www.w3.org/2000/svg">
<path d="M27.3982 2.87347L32.3177 16.1681C32.6722 17.1261 33.4275 17.8814 34.3855 18.2359L47.6801 23.1554C49.8567 23.9608 49.8567 27.0392 47.6801 27.8446L34.3855 32.7641C33.4275 33.1186 32.6722 33.8739 32.3177 34.8319L27.3982 48.1265C26.5928 50.3031 23.5144 50.3031 22.709 48.1265L17.7895 34.8319C17.435 33.8739 16.6797 33.1186 15.7217 32.7641L2.42706 27.8446C0.250515 27.0392 0.250515 23.9608 2.42706 23.1554L15.7217 18.2359C16.6797 17.8814 17.435 17.1261 17.7895 16.1681L22.709 2.87347C23.5144 0.696927 26.5928 0.696926 27.3982 2.87347Z" stroke="black"/>
</svg>
